<svg xmlns="http://www.w3.org/2000/svg" viewBox="0 0 500 500"><g id="freepik--background-simple--inject-3"><path d="M453.18,144.82c-2.41-18.77-7.12-36.76-17-53.14C417.89,61.22,385,42.83,351.56,33.49c-28-7.82-58.15-10.07-86.09-2-30.66,8.86-56.38,29.28-84,45.29a436.74,436.74,0,0,1-63.11,29.66C100.79,113.18,78.45,117,64,129.74a145.24,145.24,0,0,0-23.35,26.64c-27,39.31-35.76,89.53-31.59,136.41,2.9,32.67,11.88,65.71,32,91.59,28.28,36.3,76.8,54.19,122.6,49.68,52-5.12,101.24-36.18,152.93-28.73,25.72,3.71,50.35,16.93,76.22,14.48,25.51-2.43,47.35-20,62.74-40.46,12.34-16.43,20.55-36.29,21.31-57,.82-22.4-9.32-42.82-14.4-64.2C453.59,220.79,458,182.56,453.18,144.82Z" style="fill:#37474F"></path><path d="M453.18,144.82c-2.41-18.77-7.12-36.76-17-53.14C417.89,61.22,385,42.83,351.56,33.49c-28-7.82-58.15-10.07-86.09-2-30.66,8.86-56.38,29.28-84,45.29a436.74,436.74,0,0,1-63.11,29.66C100.79,113.18,78.45,117,64,129.74a145.24,145.24,0,0,0-23.35,26.64c-27,39.31-35.76,89.53-31.59,136.41,2.9,32.67,11.88,65.71,32,91.59,28.28,36.3,76.8,54.19,122.6,49.68,52-5.12,101.24-36.18,152.93-28.73,25.72,3.71,50.35,16.93,76.22,14.48,25.51-2.43,47.35-20,62.74-40.46,12.34-16.43,20.55-36.29,21.31-57,.82-22.4-9.32-42.82-14.4-64.2C453.59,220.79,458,182.56,453.18,144.82Z" style="fill:#fff;opacity:0.7000000000000001"></path></g><g id="freepik--Floor--inject-3"><line x1="65.86" y1="424.8" x2="479.57" y2="424.8" style="fill:none;stroke:#263238;stroke-linecap:round;stroke-linejoin:round"></line><line x1="20.54" y1="424.8" x2="58.09" y2="424.8" style="fill:none;stroke:#263238;stroke-linecap:round;stroke-linejoin:round"></line></g><g id="freepik--lock-slots--inject-3"><path d="M433.5,140.74l-9.95-33.09a15.75,15.75,0,1,0-14.7,0l-10,33.09Z" style="fill:none;stroke:#000;stroke-miterlimit:10;opacity:0.30000000000000004"></path><path d="M249.11,326.57l-10-33.09a15.75,15.75,0,1,0-14.7,0l-10,33.09Z" style="fill:none;stroke:#000;stroke-miterlimit:10;opacity:0.30000000000000004"></path><path d="M62.41,387l-6.84-22.74a10.82,10.82,0,1,0-10.1,0L38.63,387Z" style="fill:none;stroke:#000;stroke-miterlimit:10;opacity:0.30000000000000004"></path><path d="M96.29,152.94,92,138.8a6.73,6.73,0,1,0-6.28,0L81.5,152.94Z" style="fill:none;stroke:#000;stroke-miterlimit:10;opacity:0.30000000000000004"></path><path d="M369.65,207.5l-4.26-14.14a6.73,6.73,0,1,0-6.28,0l-4.25,14.14Z" style="fill:none;stroke:#000;stroke-miterlimit:10;opacity:0.30000000000000004"></path><path d="M464.36,353.11,460.1,339a6.73,6.73,0,1,0-6.28,0l-4.25,14.13Z" style="fill:none;stroke:#000;stroke-miterlimit:10;opacity:0.30000000000000004"></path></g><g id="freepik--Plant--inject-3"><path d="M389.73,258.32s-14.08-7.82-15.12,9.9-3.65,133-3.65,133" style="fill:none;stroke:#263238;stroke-linecap:round;stroke-miterlimit:10;stroke-width:2px"></path><path d="M367.3,269.79s11.48,25.55,6.27,129.83" style="fill:none;stroke:#263238;stroke-linecap:round;stroke-miterlimit:10;stroke-width:2px"></path><path d="M378.58,261.89s-5.39,3.45-8.45-.5,2.07-11.19-2.46-14.28-12.34,1.63-12.34,1.63,6,1.77,5.83,5-3.1,4.53-3.48,3.09-3.26-8.67-8.15-5.66a12.09,12.09,0,0,0-5.63,7.68S355.27,257.68,356,262s-4.66-.74-9.36-1-9,.41-8.67,3.26a37.42,37.42,0,0,1-.44,7.51,13.92,13.92,0,0,1,9.14-3.23c5.16.3,5,3.59.27,3.31s-8.72,4.2-8.72,4.2,4.28,7.32,9.72,10.94,7.4,2.32,8-.47-.83-9.94,2.46-9.75-5.44,12.4-1.24,13.12,7.56-.5,8.67-3.26l1.1-2.76s-1.46-7.15-.83-9.94,1.41.08,2.16,3.42,1.21,11.38,2.65,11,6-6.24,7.1-8.53S372,270.44,372,269s5.58,1.27,6.44,2.73a37,37,0,0,1,1.68,3.4s3.42-2.16,3.34-8.76S378.58,261.89,378.58,261.89Z" style="fill:#37474F"></path><path d="M378.58,261.89s-5.39,3.45-8.45-.5,2.07-11.19-2.46-14.28-12.34,1.63-12.34,1.63,6,1.77,5.83,5-3.1,4.53-3.48,3.09-3.26-8.67-8.15-5.66a12.09,12.09,0,0,0-5.63,7.68S355.27,257.68,356,262s-4.66-.74-9.36-1-9,.41-8.67,3.26a37.42,37.42,0,0,1-.44,7.51,13.92,13.92,0,0,1,9.14-3.23c5.16.3,5,3.59.27,3.31s-8.72,4.2-8.72,4.2,4.28,7.32,9.72,10.94,7.4,2.32,8-.47-.83-9.94,2.46-9.75-5.44,12.4-1.24,13.12,7.56-.5,8.67-3.26l1.1-2.76s-1.46-7.15-.83-9.94,1.41.08,2.16,3.42,1.21,11.38,2.65,11,6-6.24,7.1-8.53S372,270.44,372,269s5.58,1.27,6.44,2.73a37,37,0,0,1,1.68,3.4s3.42-2.16,3.34-8.76S378.58,261.89,378.58,261.89Z" style="fill:#263238;opacity:0.30000000000000004"></path><path d="M351.28,277.36c3.51-4.34,8.68-10.22,13-13" style="fill:none;stroke:#263238;stroke-linecap:round;stroke-miterlimit:10"></path><path d="M347.21,282.65s.9-1.26,2.36-3.14" style="fill:none;stroke:#263238;stroke-linecap:round;stroke-miterlimit:10"></path><path d="M366.59,265.42s5.22,7.37,6.19,15" style="fill:none;stroke:#263238;stroke-linecap:round;stroke-miterlimit:10"></path><path d="M360.68,269.78s1.47-.86.91,8.53" style="fill:none;stroke:#263238;stroke-linecap:round;stroke-miterlimit:10"></path><path d="M364.5,261.05s3-2.65,1.41-7.92" style="fill:none;stroke:#263238;stroke-linecap:round;stroke-miterlimit:10"></path><line x1="360.46" y1="265.53" x2="358.34" y2="261.63" style="fill:none;stroke:#263238;stroke-linecap:round;stroke-miterlimit:10"></line><path d="M356,269.5s-6.77-5.11-11-5.36" style="fill:none;stroke:#263238;stroke-linecap:round;stroke-miterlimit:10"></path><path d="M397.77,248s-.21,7.75-6.26,8.12-9.78-9.7-16-7.27-6.79,13.47-6.79,13.47,5.88-4.82,9-2.39,2.43,6.18.73,5.59-10.9-2.65-11.22,4.3a14.67,14.67,0,0,0,3.84,10.87s6.54-12.22,11.3-10-3.93,4.16-7.41,8.67-5.7,9.27-2.65,10.91a44.41,44.41,0,0,1,7.22,5.56s-.83-6.39,3-11.35,7-2.53,3.5,2-1.74,11.6-1.74,11.6,10.24.7,17.57-2.28,7.37-5.83,5-8.36-10.52-5.95-8.08-9.11,8.7,13.9,12.28,10.19,4.66-7.92,2.65-10.91l-2-3s-8.16-3.41-10.52-5.95,1-1.36,4.9.18,12.21,6.54,12.81,4.84-2.15-10.29-3.71-12.93-13.44-.29-14.79-1.33,5.08-4.72,7.12-4.58a43.86,43.86,0,0,1,4.55.63s.18-4.89-6.48-9.31S397.77,248,397.77,248Z" style="fill:#37474F"></path><path d="M397.77,248s-.21,7.75-6.26,8.12-9.78-9.7-16-7.27-6.79,13.47-6.79,13.47,5.88-4.82,9-2.39,2.43,6.18.73,5.59-10.9-2.65-11.22,4.3a14.67,14.67,0,0,0,3.84,10.87s6.54-12.22,11.3-10-3.93,4.16-7.41,8.67-5.7,9.27-2.65,10.91a44.41,44.41,0,0,1,7.22,5.56s-.83-6.39,3-11.35,7-2.53,3.5,2-1.74,11.6-1.74,11.6,10.24.7,17.57-2.28,7.37-5.83,5-8.36-10.52-5.95-8.08-9.11,8.7,13.9,12.28,10.19,4.66-7.92,2.65-10.91l-2-3s-8.16-3.41-10.52-5.95,1-1.36,4.9.18,12.21,6.54,12.81,4.84-2.15-10.29-3.71-12.93-13.44-.29-14.79-1.33,5.08-4.72,7.12-4.58a43.86,43.86,0,0,1,4.55.63s.18-4.89-6.48-9.31S397.77,248,397.77,248Z" style="fill:#263238;opacity:0.2"></path><path d="M394.66,285.85c-2-6.47-4.31-15.66-4.16-21.91" style="fill:none;stroke:#263238;stroke-linecap:round;stroke-miterlimit:10"></path><path d="M397.17,293.53s-.64-1.75-1.52-4.5" style="fill:none;stroke:#263238;stroke-linecap:round;stroke-miterlimit:10"></path><path d="M393.14,262.38s10.94-.2,19.2,4" style="fill:none;stroke:#263238;stroke-linecap:round;stroke-miterlimit:10"></path><path d="M393.48,271.27s.14-2,9.16,4.91" style="fill:none;stroke:#263238;stroke-linecap:round;stroke-miterlimit:10"></path><path d="M387.34,261.51s-.62-4.8-7-6.82" style="fill:none;stroke:#263238;stroke-linecap:round;stroke-miterlimit:10"></path><line x1="389.07" y1="268.59" x2="383.72" y2="268.07" style="fill:none;stroke:#263238;stroke-linecap:round;stroke-miterlimit:10"></line><path d="M390,275.78s-9.72,3.29-12.85,7.35" style="fill:none;stroke:#263238;stroke-linecap:round;stroke-miterlimit:10"></path><path d="M332.89,299.51s30.77,20.34,30.25,99.07" style="fill:none;stroke:#263238;stroke-linecap:round;stroke-miterlimit:10;stroke-width:2px"></path><path d="M370.83,294.14s-1,8.91-8,8.78S352.46,290.8,345.1,293s-9.1,14.9-9.1,14.9,7.23-5,10.65-1.91,2.21,7.37.3,6.53-12.33-4.09-13.35,3.89A17,17,0,0,0,337,329.34s8.7-13.48,14-10.46-4.93,4.43-9.37,9.31-7.45,10.16-4.08,12.33,7.8,7.1,7.8,7.1-.35-7.45,4.53-12.82,8.3-2.25,3.86,2.62-3.11,13.22-3.11,13.22,11.75,1.78,20.49-1,9.05-6,6.57-9.18-11.57-7.85-8.47-11.27,8.73,16.86,13.22,12.92,6.12-8.69,4.08-12.33l-2-3.64s-9.09-4.71-11.57-7.86,1.33-1.46,5.63.67,13.48,8.7,14.33,6.79-1.51-12.06-3.06-15.26-15.48-1.6-16.94-2.93,6.3-5,8.65-4.61a52,52,0,0,1,5.19,1.16s.67-5.64-6.6-11.36S370.83,294.14,370.83,294.14Z" style="fill:#37474F"></path><path d="M370.83,294.14s-1,8.91-8,8.78S352.46,290.8,345.1,293s-9.1,14.9-9.1,14.9,7.23-5,10.65-1.91,2.21,7.37.3,6.53-12.33-4.09-13.35,3.89A17,17,0,0,0,337,329.34s8.7-13.48,14-10.46-4.93,4.43-9.37,9.31-7.45,10.16-4.08,12.33,7.8,7.1,7.8,7.1-.35-7.45,4.53-12.82,8.3-2.25,3.86,2.62-3.11,13.22-3.11,13.22,11.75,1.78,20.49-1,9.05-6,6.57-9.18-11.57-7.85-8.47-11.27,8.73,16.86,13.22,12.92,6.12-8.69,4.08-12.33l-2-3.64s-9.09-4.71-11.57-7.86,1.33-1.46,5.63.67,13.48,8.7,14.33,6.79-1.51-12.06-3.06-15.26-15.48-1.6-16.94-2.93,6.3-5,8.65-4.61a52,52,0,0,1,5.19,1.16s.67-5.64-6.6-11.36S370.83,294.14,370.83,294.14Z" style="fill:#263238;opacity:0.30000000000000004"></path><path d="M363.65,337.56c-1.64-7.66-3.49-18.48-2.72-25.68" style="fill:none;stroke:#263238;stroke-linecap:round;stroke-miterlimit:10"></path><path d="M365.83,346.65s-.57-2.08-1.33-5.33" style="fill:none;stroke:#263238;stroke-linecap:round;stroke-miterlimit:10"></path><path d="M364.12,310.33s12.64.8,21.78,6.44" style="fill:none;stroke:#263238;stroke-linecap:round;stroke-miterlimit:10"></path><path d="M363.67,320.62s.36-2.36,10.11,6.52" style="fill:none;stroke:#263238;stroke-linecap:round;stroke-miterlimit:10"></path><path d="M357.51,308.77s-.26-5.59-7.4-8.52" style="fill:none;stroke:#263238;stroke-linecap:round;stroke-miterlimit:10"></path><line x1="358.84" y1="317.11" x2="352.72" y2="316" style="fill:none;stroke:#263238;stroke-linecap:round;stroke-miterlimit:10"></line><path d="M359.23,325.49s-11.53,2.88-15.52,7.27" style="fill:none;stroke:#263238;stroke-linecap:round;stroke-miterlimit:10"></path><path d="M344.89,361.56s19.81,15.12,21.9,37.54L362.62,324" style="fill:none;stroke:#263238;stroke-linecap:round;stroke-miterlimit:10;stroke-width:2px"></path><path d="M392.86,350.61c-26.07-4.69-26.07,48.49-26.07,48.49" style="fill:none;stroke:#263238;stroke-linecap:round;stroke-miterlimit:10;stroke-width:2px"></path><path d="M369.92,398.58s-15.13-110,28.67-110" style="fill:none;stroke:#263238;stroke-linecap:round;stroke-miterlimit:10;stroke-width:2px"></path><path d="M382.92,347.45c-3.56-4-11.12-4-15.58,6.23s-.44,8.46-.44,8.46,8.46-2.67,13.8-4.45,12.46-6.24,12.91-3.57-3.56,5.35-8.46,6.24-17.81,4.45-16.47,7.12,4.45,10.68,4.45,10.68a113,113,0,0,1,12-8.9c5.79-3.56,9.35-2.23,6.23,1.78s-12,8.46-10.24,13.8,12.47,12,12.47,12,1.33-11.13,4.45-14.69,3.12.44,2.23,6.68a71.7,71.7,0,0,0-.9,8l12.47,4.45s4.45-6.68,6.68-8.9l2.22-2.23s-9.79-8.46-10.24-13.8,6.68,0,8.91.89,5.78,7.12,5.78,7.12,2.23-10.23,2.67-13.79l.45-3.57s-9.35-3.56-12.91-3.56-5.34,2.67-5.34-.89,3.56-5.78,7.57-5.34a70.23,70.23,0,0,1,10.68,2.67s2.67-2.22,1.78-8.9-3.12-6.68-8.46-4.9-8.9,5.79-12.91,5.79-1.78-4.9.89-6.23,9.35-4,10.69-4.46-7.13-6.67-11.58-7.56-10.21,2.24-9.79,6.67C399.84,349.67,386.49,351.45,382.92,347.45Z" style="fill:#37474F"></path><path d="M411.58,393.28c.13,1.34.23,2.68.28,4" style="fill:none;stroke:#263238;stroke-linecap:round;stroke-miterlimit:10"></path><path d="M402.64,361.32A118.47,118.47,0,0,1,411,388.91" style="fill:none;stroke:#263238;stroke-linecap:round;stroke-miterlimit:10"></path><path d="M401,357.75c-2.2-4.74-3.86-7.63-3.86-7.63a13.16,13.16,0,0,0,5.79-5.34,14.8,14.8,0,0,1,4.45-5.35" style="fill:none;stroke:#263238;stroke-linecap:round;stroke-miterlimit:10"></path><path d="M381.59,365.25s16-6.67,16-5.34" style="fill:none;stroke:#263238;stroke-linecap:round;stroke-miterlimit:10"></path><path d="M406.52,356.8s7.12-3.57,13.35-3.57" style="fill:none;stroke:#263238;stroke-linecap:round;stroke-miterlimit:10"></path><path d="M403.85,367.48a61.71,61.71,0,0,0-8.46,8.46,38.31,38.31,0,0,0-6.23,10.24" style="fill:none;stroke:#263238;stroke-linecap:round;stroke-miterlimit:10"></path><path d="M408.74,369.26s9.35-2.67,14.25,1.78" style="fill:none;stroke:#263238;stroke-linecap:round;stroke-miterlimit:10"></path><path d="M425.68,309.11c-4.85-2.87-10.21-2.93-12.84-5.95s2.53-4.56,5.29-3.42,9.16,4.43,10.37,5.15.37-9.75-1.87-13.7-8.4-6.24-11.47-3c-6.47,6.8-16.57-2.11-15.88-7.43s-4.27-11-14.92-7.68-6.68,5.21-6.68,5.21,7.56,4.63,12.41,7.5,12.88,5.33,11.15,7.42-6.37.81-10.25-2.31-15-10.52-16.18-7.76-5.15,10.36-5.15,10.36a112.73,112.73,0,0,1,14.61,3.24c6.48,2,7.81,5.6,2.74,5.87s-14.27-3.53-17.14,1.32-.9,17.29-.9,17.29,9.28-6.29,14-6.27,1.71,2.65-3.58,6.06a72.65,72.65,0,0,0-6.64,4.58l4.81,12.33s8-1,11.1-.79l3.14.22s0-12.94,3.71-16.78,4.38,5,5.17,7.31-1.59,9-1.59,9,9.19-5,12.17-7l3-2s-3.43-9.4-5.77-12.09-5.52-2.28-2.83-4.61,6.71-1.11,9,2.21a69.31,69.31,0,0,1,5,9.82s3.43.56,7.89-4.49S430.52,312,425.68,309.11Zm-42.13,14.25c-3.56-1.78,4.89-5.34,4.89-5.34C391.56,317.57,387.11,325.14,383.55,323.36Zm6-16.62c-1.52-.76,3-2.28,3-2.28C399.16,305.73,391.06,307.5,389.55,306.74Z" style="fill:#37474F"></path><path d="M383.45,332.43c-.92,1-1.87,1.93-2.85,2.84" style="fill:none;stroke:#263238;stroke-linecap:round;stroke-miterlimit:10"></path><path d="M401.72,304.72a117.83,117.83,0,0,1-15.33,24.41" style="fill:none;stroke:#263238;stroke-linecap:round;stroke-miterlimit:10"></path><path d="M403.37,301.17c2.14-4.77,3.23-7.92,3.23-7.92a13.16,13.16,0,0,0,7.83.87,14.82,14.82,0,0,1,6.95-.14" style="fill:none;stroke:#263238;stroke-linecap:round;stroke-miterlimit:10"></path><path d="M385,291.4s15.55,7.73,14.54,8.6" style="fill:none;stroke:#263238;stroke-linecap:round;stroke-miterlimit:10"></path><path d="M407.69,304.68s7.36,3.05,11.44,7.75" style="fill:none;stroke:#263238;stroke-linecap:round;stroke-miterlimit:10"></path><path d="M397.87,309.67a61.8,61.8,0,0,0-11.93-.84,38.22,38.22,0,0,0-11.82,2" style="fill:none;stroke:#263238;stroke-linecap:round;stroke-miterlimit:10"></path><path d="M399.73,314.54s8.15,5.3,8,11.92" style="fill:none;stroke:#263238;stroke-linecap:round;stroke-miterlimit:10"></path><path d="M356.5,370.79c-3.9-2.3-8.21-2.36-10.32-4.79s2-3.67,4.25-2.75,7.37,3.57,8.35,4.15.3-7.85-1.51-11-6.76-5-9.23-2.43c-5.21,5.48-13.34-1.7-12.78-6s-3.44-8.88-12-6.18-5.37,4.19-5.37,4.19,6.08,3.73,10,6,10.37,4.29,9,6-5.13.65-8.25-1.86-12.1-8.47-13-6.25-4.14,8.34-4.14,8.34a91.19,91.19,0,0,1,11.75,2.61c5.22,1.64,6.28,4.51,2.21,4.73s-11.49-2.84-13.79,1.06-.73,13.91-.73,13.91,7.47-5.06,11.27-5,1.38,2.13-2.88,4.87a58,58,0,0,0-5.34,3.69l3.87,9.92a71.13,71.13,0,0,1,8.94-.64l2.52.18s0-10.41,3-13.5,3.52,4.06,4.15,5.88-1.27,7.27-1.27,7.27,7.39-4,9.79-5.65l2.4-1.61s-2.77-7.56-4.64-9.73-4.45-1.83-2.28-3.71,5.39-.89,7.24,1.78a56.15,56.15,0,0,1,4,7.9s2.76.45,6.35-3.61S360.4,373.1,356.5,370.79Zm-33.9,11.47c-2.86-1.43,3.94-4.3,3.94-4.3C329.05,377.6,325.47,383.69,322.6,382.26Zm4.83-13.38c-1.22-.61,2.44-1.83,2.44-1.83C335.16,368.07,328.65,369.5,327.43,368.88Z" style="fill:#37474F"></path><path d="M322.52,389.56c-.74.78-1.51,1.55-2.29,2.29" style="fill:none;stroke:#263238;stroke-linecap:round;stroke-miterlimit:10"></path><path d="M337.23,367.26a94.76,94.76,0,0,1-12.35,19.65" style="fill:none;stroke:#263238;stroke-linecap:round;stroke-miterlimit:10"></path><path d="M338.55,364.4c1.72-3.84,2.6-6.37,2.6-6.37a10.66,10.66,0,0,0,6.3.7,12,12,0,0,1,5.6-.12" style="fill:none;stroke:#263238;stroke-linecap:round;stroke-miterlimit:10"></path><path d="M323.74,356.54s12.51,6.22,11.7,6.92" style="fill:none;stroke:#263238;stroke-linecap:round;stroke-miterlimit:10"></path><path d="M342,367.23s5.92,2.45,9.21,6.24" style="fill:none;stroke:#263238;stroke-linecap:round;stroke-miterlimit:10"></path><path d="M334.12,371.24a49.27,49.27,0,0,0-9.6-.67,30.88,30.88,0,0,0-9.51,1.61" style="fill:none;stroke:#263238;stroke-linecap:round;stroke-miterlimit:10"></path><path d="M335.63,375.16s6.55,4.27,6.43,9.6" style="fill:none;stroke:#263238;stroke-linecap:round;stroke-miterlimit:10"></path><path d="M340.6,297.28s-4.9,3.56-8,0,1.33-10.68-3.12-13.35-11.57,2.22-11.57,2.22,5.78,1.34,5.78,4.46-2.67,4.45-3.11,3.11-3.56-8-8-4.9a11.44,11.44,0,0,0-4.9,7.57s10.68-1.78,11.57,2.23-4.45-.45-8.9-.45-8.46.89-8,3.56a35.55,35.55,0,0,1,0,7.13,13.22,13.22,0,0,1,8.45-3.56c4.9,0,4.9,3.11.45,3.11s-8,4.45-8,4.45,4.45,6.68,9.79,9.8,7.12,1.78,7.57-.89-1.34-9.35,1.78-9.35-4.45,12-.45,12.46,7.13-.89,8-3.56l.89-2.67S329,312,329.47,309.3s1.34,0,2.23,3.12,1.78,10.68,3.11,10.24,5.35-6.24,6.24-8.46-6.24-8.46-6.24-9.79,5.35.89,6.24,2.22a35,35,0,0,1,1.78,3.12s3.11-2.23,2.67-8.46S340.6,297.28,340.6,297.28Z" style="fill:#37474F"></path><path d="M315.66,313.43c3.08-4.3,7.64-10.14,11.59-13" style="fill:none;stroke:#263238;stroke-linecap:round;stroke-miterlimit:10"></path><path d="M312.11,318.65s.78-1.23,2.06-3.09" style="fill:none;stroke:#263238;stroke-linecap:round;stroke-miterlimit:10"></path><path d="M329.47,301.29s5.34,6.68,6.68,13.8" style="fill:none;stroke:#263238;stroke-linecap:round;stroke-miterlimit:10"></path><path d="M324.13,305.74s1.34-.89,1.34,8" style="fill:none;stroke:#263238;stroke-linecap:round;stroke-miterlimit:10"></path><path d="M327.25,297.28s2.67-2.67.89-7.56" style="fill:none;stroke:#263238;stroke-linecap:round;stroke-miterlimit:10"></path><line x1="323.68" y1="301.73" x2="321.46" y2="298.17" style="fill:none;stroke:#263238;stroke-linecap:round;stroke-miterlimit:10"></line><path d="M319.68,305.74S313,301.29,309,301.29" style="fill:none;stroke:#263238;stroke-linecap:round;stroke-miterlimit:10"></path><rect x="351.14" y="397.02" width="34.41" height="49.54" style="fill:#263238;stroke:#263238;stroke-linecap:round;stroke-miterlimit:10;stroke-width:2px"></rect></g><g id="freepik--Key--inject-3"><path d="M331.16,130.15a40.88,40.88,0,0,0,0-57.75h0a40.85,40.85,0,0,0-26.55-11.9c-.61,0-1.23-.06-1.84-.06h-.24c-.35,0-.82,0-1.36.05h-.7a4.78,4.78,0,0,0-.53,0h-.05c-.54,0-1.07.08-1.6.13a24,24,0,0,0,1.81-9.19,24.27,24.27,0,1,0-46.63,9.38,40.9,40.9,0,0,0-5.88-.42c-.67,0-1.56,0-2.52.09a40.84,40.84,0,0,0-33.68,59.68l.14.25a41,41,0,0,0,7.19,9.69l45.53,45.54v4.06a7.9,7.9,0,0,0,0,15.35v7.08a7.9,7.9,0,0,0,0,15.35V408.16H211.57a5.6,5.6,0,0,0-5.59,5.59v27.07a5.6,5.6,0,0,0,5.59,5.58h9.18a.52.52,0,0,0,.52-.52v-9.63a4.92,4.92,0,1,1,9.83,0v9.63a.52.52,0,0,0,.52.52h4.21a.52.52,0,0,0,.52-.52v-9.63a4.92,4.92,0,1,1,9.83,0v9.63a.52.52,0,0,0,.52.52h4.2a.52.52,0,0,0,.52-.52v-9.63a4.92,4.92,0,0,1,9.84,0v9.63a.52.52,0,0,0,.52.52h2.63a.52.52,0,0,0,.37.15h20.11a.52.52,0,0,0,.52-.52V217.65a7.89,7.89,0,0,0,0-15.59v-6.83a7.9,7.9,0,0,0,0-15.6V175.9Zm-58.37,38.51L241,136.84a36.87,36.87,0,0,0,4.47.27,37.52,37.52,0,0,0,26.57-11,25.72,25.72,0,0,0,3.84.31c.72,0,1.45,0,2.19-.11a37.66,37.66,0,0,0,31.6,9.77l-32.55,32.55ZM226.5,80.18a29.68,29.68,0,0,1,19.29-8.67l.19,0c.43,0,.93,0,1.61,0s1.62,0,2.41.1a28.45,28.45,0,0,1,15.34,7.79,27,27,0,0,0-4.94,3,24,24,0,0,0-9.64,19,25.24,25.24,0,0,0,11.34,21,28.27,28.27,0,0,1-39.88-6.69l-.41.28.35-.37a28.14,28.14,0,0,1-3.59-7.27A29.68,29.68,0,0,1,226.5,80.18Zm74-8.65.25,0h.91l.63,0h.52c.38,0,.75,0,1.19,0a29.83,29.83,0,0,1,28.13,28.85,28.3,28.3,0,0,1-43.34,22.54,24.93,24.93,0,0,0,6.35-5.44A24.23,24.23,0,0,0,294,84.2a23.84,23.84,0,0,0-9.37-6.11,28.48,28.48,0,0,1,6.25-4.35A30,30,0,0,1,300.46,71.53ZM276.65,87.72a13.65,13.65,0,0,1,3.37.42c5.57,1.44,9.93,7.24,9.93,13.21a14.08,14.08,0,0,1-12.44,14,14,14,0,0,1-6.59-.79,13.76,13.76,0,0,1-2.86-1.46,14.9,14.9,0,0,1,1.67-23.66A15.33,15.33,0,0,1,276.65,87.72Zm-.81-51.17a14.93,14.93,0,1,1-14.93,14.93A14.94,14.94,0,0,1,275.84,36.55Z" style="fill:#263238"></path></g><g id="freepik--Character--inject-3"><path d="M114.88,434.65a64,64,0,0,0-5.38,4.69c-2.45,2.46-9.33,5.16-13.5,8.11s-1.72,5.89,2,7.12,14.25.24,18.18-.49,5.89-5.4,9.08-6.14,9.09,2,9.33-2.7.49-9.33.49-9.33Z" style="fill:#fff;stroke:#263238;stroke-linecap:round;stroke-linejoin:round"></path><path d="M134.55,445.24c0-.95.1-1.9.15-2.8-2.67,1.92-6,1.83-10.46,2.8-5.65,1.22-7.61,6.63-18.91,7.12-7.31.32-10.29-1-11.49-2-.2,1.81,1.69,3.38,4.12,4.19,3.69,1.23,14.25.24,18.18-.49s5.89-5.4,9.08-6.14S134.31,449.9,134.55,445.24Z" style="fill:#fff;stroke:#263238;stroke-linecap:round;stroke-linejoin:round"></path><path d="M117.12,433.69s-5.65,6.88-7.62,9.09,3.69,1.47,6.14-.74a72.63,72.63,0,0,0,6.39-7.36Z" style="fill:#fff;stroke:#263238;stroke-linecap:round;stroke-linejoin:round"></path><path d="M194.53,434.65a63,63,0,0,1,5.37,4.69c2.46,2.46,9.33,5.16,13.51,8.11s1.72,5.89-2,7.12-14.24.24-18.17-.49-5.89-5.4-9.08-6.14-9.09,2-9.34-2.7-.49-9.33-.49-9.33Z" style="fill:#fff;stroke:#263238;stroke-linecap:round;stroke-linejoin:round"></path><path d="M174.85,445.24c0-.95-.1-1.9-.14-2.8,2.67,1.92,6,1.83,10.46,2.8,5.65,1.22,7.61,6.63,18.91,7.12,7.3.32,10.28-1,11.49-2,.19,1.81-1.69,3.38-4.13,4.19-3.68,1.23-14.24.24-18.17-.49s-5.89-5.4-9.08-6.14S175.1,449.9,174.85,445.24Z" style="fill:#fff;stroke:#263238;stroke-linecap:round;stroke-linejoin:round"></path><path d="M192.29,433.69s5.65,6.88,7.61,9.09-3.68,1.47-6.14-.74a73.44,73.44,0,0,1-6.38-7.36Z" style="fill:#fff;stroke:#263238;stroke-linecap:round;stroke-linejoin:round"></path><path d="M117.94,259.19s-3.06,27.6-3.06,32.06,0,60.73.68,70.68-2.74,14.05-.68,26.74,2.74,35,2.74,35-2.74,1.71-2.74,3.43v7.55l20.66,2.24s1.3-17.68,1.64-23.17,5.49-40.12,6.86-50.07S150.83,297,150.83,297s9,62.83,9.68,64.89a127.38,127.38,0,0,1,4.8,15.08c3.09,11.32,5.83,50.43,5.83,50.43l3,10.92,21.12-3.93s-3.14-17.62-3.14-20.37-.68-1.71-1.37-8.58a269.62,269.62,0,0,1-1-38.4c.69-19.9-8.58-72.74-8.58-72.74L178.35,259S144.34,266.92,117.94,259.19Z" style="fill:#263238;stroke:#263238;stroke-linecap:round;stroke-linejoin:round"></path><path d="M159.19,288.39l-5.56,10.32s11.91-7.14,19.45-8.33" style="fill:none;stroke:#949494;stroke-linecap:round;stroke-linejoin:round"></path><path d="M140.8,295.13s-5.16-8.34-14.3-10.73" style="fill:none;stroke:#949494;stroke-linecap:round;stroke-linejoin:round"></path><path d="M116.92,262.09s-3.58,9-1.79,11.66,18.39,9.42,35,9.42,32.74-5.83,32.74-9.87-3.14-13.9-3.14-13.9S152.8,272,116.92,262.09Z" style="fill:#37474F;stroke:#263238;stroke-linecap:round;stroke-linejoin:round"></path><path d="M122.4,176.71s-12,0-14.77,2.23-3.06,11.42-3.34,13.09-10,48.6-10,48.6l3.44,5.63,10.65.47L116,218.51l.48,45.75s.92,4.49,4,6.17S145,273.77,155,273.77s24.49-5,25.6-8.09-2.19-37.42-2.19-37.42l4.76,10.58,11.4-19.54s-7.8-25.87-8.92-31.45-4.18-7.24-10.31-9.75-24.24-1.67-31.48-1.67S122.4,176.71,122.4,176.71Z" style="fill:#37474F;stroke:#263238;stroke-linecap:round;stroke-linejoin:round"></path><path d="M125.44,266.57a10.33,10.33,0,0,0,9-8.52c1.8-8.07,2.69-12.55,2.69-12.55l3.14-.45a128.85,128.85,0,0,1-.89,13.45c-.9,7.62-3.59,9.87-4.94,9.87" style="fill:none;stroke:#263238;stroke-linecap:round;stroke-linejoin:round"></path><path d="M175.22,262.54c3.59-9-4.48-19.29-4.48-19.29l-3.14-.45s9,11.66,4.48,20.63" style="fill:none;stroke:#263238;stroke-linecap:round;stroke-linejoin:round"></path><line x1="115.99" y1="218.51" x2="114.04" y2="204.29" style="fill:none;stroke:#263238;stroke-linecap:round;stroke-linejoin:round"></line><line x1="178.41" y1="228.26" x2="177.3" y2="202.34" style="fill:none;stroke:#263238;stroke-linecap:round;stroke-linejoin:round"></line><path d="M180.71,229.82s-3.48-6.45,7.94-11.91" style="fill:none;stroke:#263238;stroke-linecap:round;stroke-linejoin:round"></path><path d="M182.69,216.42s6-2.48,9.93-2.48" style="fill:none;stroke:#263238;stroke-linecap:round;stroke-linejoin:round"></path><path d="M102.3,217.91s7.92,1,9.91,8.42" style="fill:none;stroke:#263238;stroke-linecap:round;stroke-linejoin:round"></path><path d="M113.22,221.38s-3.47-5.95-8.93-6.94" style="fill:none;stroke:#263238;stroke-linecap:round;stroke-linejoin:round"></path><path d="M139.76,164.19s-6.32,0-8.19,1.4-2.81,5.15-3.75,5.86-5.15.46-6.09,3-.93,1.87,6.32,8.66,25.29,14.51,27.16,14.51,14-14,17.56-15.68,4-1.64,4.21-2.58-.23-5.61-3.28-7.49a19.87,19.87,0,0,0-7-2.34s-.47-2.81-4.21-4.91-8.9-2.58-12.64-2.58S139.76,164.19,139.76,164.19Z" style="fill:#37474F;stroke:#263238;stroke-linecap:round;stroke-linejoin:round"></path><path d="M166.68,169.57a37.89,37.89,0,0,1-2.35,10.13" style="fill:none;stroke:#263238;stroke-linecap:round;stroke-linejoin:round"></path><path d="M129.1,174.74s1,3,6.45,5.95" style="fill:none;stroke:#263238;stroke-linecap:round;stroke-linejoin:round"></path><line x1="150.82" y1="194.26" x2="151.38" y2="224.91" style="fill:none;stroke:#fff;stroke-linecap:round;stroke-linejoin:round"></line><line x1="157.51" y1="194.54" x2="160.3" y2="222.96" style="fill:none;stroke:#fff;stroke-linecap:round;stroke-linejoin:round"></line><path d="M193.69,220.66l26.8-21.3s-1.2-7.65-1-8.85,2.39-8.13,7.66-10.76,6.93-3.11,6.93-1.2-1.91,2.39-2.39,3.11-3.11,3.35-3.11,3.35,5-2.15,6.7-2.15,4.55-.72,4.55.95-1.92,1.68-3.11,1.68-4.55,3.35-4.55,3.35a85.07,85.07,0,0,1,8.37-1.68c1.44,0,2.64,1.68,1.44,2.4a14.74,14.74,0,0,1-3.35,1.19,31,31,0,0,0-3.11,1.68s7.18-.72,6.7,1.19-3.83,1.44-4.55,1.44-3.59,1.43-4.06,2.39-1.44,5-3.35,6-5.51,2.39-5.51,2.39-12.2,14.84-17.22,20.58S193.45,238.84,188.43,240s-6-.24-6.22-2.4S182.2,227.83,193.69,220.66Z" style="fill:#fff;stroke:#263238;stroke-linecap:round;stroke-linejoin:round"></path><path d="M220.73,187.4s5.74-2.63,6.94-2.63,3.11,1,1.67,2.63a31.08,31.08,0,0,1-5.26,4.07s6.93,2.87,3.59,8.13" style="fill:none;stroke:#263238;stroke-linecap:round;stroke-linejoin:round"></path><path d="M94.1,242.31c-.4,4.84-2.44,14.08-2.72,15.36-1.51,7.06-3.27,12.74-4.77,19.8a5.69,5.69,0,0,1-.26,1.18S79,281,78,281.7s-6.25,5.74-6.29,11.62.28,7.6,2,6.76,1.3-2.78,1.74-3.52,1.63-4.27,1.63-4.27.29,5.46,1,7,1.37,4.39,2.87,3.66.66-2.46.13-3.53,1-5.56,1-5.56,1.56,7,2.19,8.25,2.67,1.62,2.78.23a14.29,14.29,0,0,0-.4-3.53,31.82,31.82,0,0,1,.13-3.53s2.52,6.76,4,5.48-.4-4.06-.72-4.71-.3-3.85.35-4.7,3.88-3.51,3.89-5.65-.28-6-.28-6,7.93-17.5,10.86-24.54,5.61-9.66,1.61-10.08c-3.63-.38-6.74-.3-9.68-2.5-.5-.38-1.89-1.84-2.51-1.92C93.88,240.58,94.21,241,94.1,242.31Z" style="fill:#fff;stroke:#263238;stroke-linecap:round;stroke-linejoin:round"></path><path d="M75.72,284.15s.18,6.31.7,7.38,2.24,2.37,3.1.35a31.17,31.17,0,0,0,1.33-6.52s5.64,5,8.89-.37" style="fill:none;stroke:#263238;stroke-linecap:round;stroke-linejoin:round"></path><path d="M145,120.84s7.5,1.3,11,5.54,14.87,29.84,14.84,32.13-11.59,1.13-11.59,1.13-1.18,12.82-5.26,22.2c-1.11,2.56-5.1,7.6-9.37,5.72s-6.12-31.13-6.12-31.13-4.06,5.76-7.14,4.22c-3.52-1.76-2.88-6.08-.36-6.32s-8.06-9.65-5.45-16.77S141.78,118.86,145,120.84Z" style="fill:#fff;stroke:#263238;stroke-linecap:round;stroke-linejoin:round"></path><path d="M147,112.5s14.11-1.37,15.53,5.36-5.59,10.46-13.78,10-15.44.74-16.33,2.1,10.2,2.82,7.85,4.83a8.18,8.18,0,0,1-4.89,2s3.62.67,3.62,3.21-1.12,13.89-2.88,14.06-5.14.28-5.14.28a32.15,32.15,0,0,1-9.18-5.47c-4.17-3.66-6-12.13-1.72-17.63s7.61-10.74,11-15.14,6.5-9,14-10.77S156.83,106.21,147,112.5Z" style="fill:#263238;stroke:#263238;stroke-linecap:round;stroke-linejoin:round"></path><path d="M120.12,141.38a16.33,16.33,0,0,0,.29,4.49" style="fill:none;stroke:#fff;stroke-linecap:round;stroke-linejoin:round"></path><path d="M144.26,120.8s15.61,0,10.06,3.53-15-1.15-25.87,4.41a14.55,14.55,0,0,0-7.67,8.94" style="fill:none;stroke:#949494;stroke-linecap:round;stroke-linejoin:round"></path><path d="M136,133.45s-10.06,6.19-10.74,13.84" style="fill:none;stroke:#949494;stroke-linecap:round;stroke-linejoin:round"></path><path d="M159.24,159.64s-12.17.42-15.72-2" style="fill:none;stroke:#263238;stroke-linecap:round;stroke-linejoin:round"></path><path d="M162,149.19s-8.57,3.38-11.61-1.66" style="fill:none;stroke:#263238;stroke-linecap:round;stroke-linejoin:round"></path><line x1="151.84" y1="146.37" x2="148.21" y2="148.25" style="fill:none;stroke:#263238;stroke-linecap:round;stroke-linejoin:round"></line><path d="M158.13,137.87s7.91.25,8,1.51-4.57,5.28-4.57,5.28" style="fill:#fff;stroke:#263238;stroke-linecap:round;stroke-linejoin:round"></path><path d="M156.9,135.55c.47,1,1.28,1.72,1.81,1.48s.57-1.28.1-2.33-1.28-1.72-1.81-1.48S156.43,134.5,156.9,135.55Z" style="fill:#263238"></path><path d="M150.61,139.56c.47,1.05,1.27,1.71,1.8,1.48s.58-1.28.11-2.34-1.28-1.71-1.81-1.48S150.14,138.5,150.61,139.56Z" style="fill:#263238"></path><path d="M149.54,132.43s-3.78.72-2.92,5.89Z" style="fill:#263238;stroke:#263238;stroke-linecap:round;stroke-linejoin:round"></path><path d="M152.77,129.67s1.81-3,5,.57Z" style="fill:#263238;stroke:#263238;stroke-linecap:round;stroke-linejoin:round"></path></g></svg>